<mxfile host="app.diagrams.net" modified="2022-06-17T10:09:27.933Z" agent="5.0 (Macintosh; Intel Mac OS X 10_15_7) AppleWebKit/537.36 (KHTML, like Gecko) Chrome/102.0.0.0 Safari/537.36" etag="4OXVMpPUS4SY54_rkxCN" version="20.0.1" type="github">
  <diagram id="Shsom_H4tVfCG1HWOmDZ" name="Page-1">
    <mxGraphModel dx="1426" dy="794" grid="1" gridSize="10" guides="1" tooltips="1" connect="1" arrows="1" fold="1" page="1" pageScale="1" pageWidth="827" pageHeight="1169" math="0" shadow="0">
      <root>
        <mxCell id="0" />
        <mxCell id="1" parent="0" />
        <mxCell id="BcmExChnxHGvDrvImLiJ-5" style="edgeStyle=orthogonalEdgeStyle;rounded=0;orthogonalLoop=1;jettySize=auto;html=1;entryX=0.5;entryY=0;entryDx=0;entryDy=0;entryPerimeter=0;" edge="1" parent="1" source="BcmExChnxHGvDrvImLiJ-2" target="BcmExChnxHGvDrvImLiJ-3">
          <mxGeometry relative="1" as="geometry" />
        </mxCell>
        <mxCell id="BcmExChnxHGvDrvImLiJ-2" value="Start" style="ellipse;whiteSpace=wrap;html=1;aspect=fixed;fillColor=#60a917;fontColor=#ffffff;strokeColor=#2D7600;" vertex="1" parent="1">
          <mxGeometry x="370" y="50" width="50" height="50" as="geometry" />
        </mxCell>
        <mxCell id="BcmExChnxHGvDrvImLiJ-8" value="" style="edgeStyle=orthogonalEdgeStyle;rounded=0;orthogonalLoop=1;jettySize=auto;html=1;exitX=0.5;exitY=1;exitDx=0;exitDy=0;" edge="1" parent="1" source="BcmExChnxHGvDrvImLiJ-9" target="BcmExChnxHGvDrvImLiJ-6">
          <mxGeometry relative="1" as="geometry">
            <mxPoint x="395" y="320" as="sourcePoint" />
          </mxGeometry>
        </mxCell>
        <mxCell id="BcmExChnxHGvDrvImLiJ-10" style="edgeStyle=orthogonalEdgeStyle;rounded=0;orthogonalLoop=1;jettySize=auto;html=1;" edge="1" parent="1" target="BcmExChnxHGvDrvImLiJ-9">
          <mxGeometry relative="1" as="geometry">
            <mxPoint x="395" y="250" as="sourcePoint" />
          </mxGeometry>
        </mxCell>
        <mxCell id="BcmExChnxHGvDrvImLiJ-45" value="" style="edgeStyle=orthogonalEdgeStyle;rounded=0;orthogonalLoop=1;jettySize=auto;html=1;fontColor=#FFB570;" edge="1" parent="1" source="BcmExChnxHGvDrvImLiJ-3" target="BcmExChnxHGvDrvImLiJ-16">
          <mxGeometry relative="1" as="geometry" />
        </mxCell>
        <mxCell id="BcmExChnxHGvDrvImLiJ-3" value="&lt;b&gt;&lt;font color=&quot;#000000&quot;&gt;发起人&lt;/font&gt;&lt;/b&gt;" style="shape=umlActor;verticalLabelPosition=bottom;verticalAlign=top;html=1;outlineConnect=0;fillColor=#647687;fontColor=#ffffff;strokeColor=#314354;" vertex="1" parent="1">
          <mxGeometry x="375" y="160" width="40" height="70" as="geometry" />
        </mxCell>
        <mxCell id="BcmExChnxHGvDrvImLiJ-12" style="edgeStyle=orthogonalEdgeStyle;rounded=0;orthogonalLoop=1;jettySize=auto;html=1;entryX=0.5;entryY=0;entryDx=0;entryDy=0;" edge="1" parent="1" source="BcmExChnxHGvDrvImLiJ-6" target="BcmExChnxHGvDrvImLiJ-11">
          <mxGeometry relative="1" as="geometry" />
        </mxCell>
        <mxCell id="BcmExChnxHGvDrvImLiJ-6" value="直属leader" style="rounded=1;whiteSpace=wrap;html=1;fillColor=#1ba1e2;fontColor=#ffffff;strokeColor=#006EAF;" vertex="1" parent="1">
          <mxGeometry x="340" y="360" width="110" height="40" as="geometry" />
        </mxCell>
        <mxCell id="BcmExChnxHGvDrvImLiJ-9" value="" style="shape=image;verticalLabelPosition=bottom;labelBackgroundColor=default;verticalAlign=top;aspect=fixed;imageAspect=0;image=data:image/png,iVBORw0KGgoAAAANSUhEUgAAAOEAAADhCAMAAAAJbSJIAAAAilBMVEX29vYAAAABAQH39/f8/Pz///+cnJwuLi64uLjs7Ozz8/Pv7+/r6+sFBQXo6Ojl5eUmJiZ/f39CQkKIiIgSEhJhYWHY2NhxcXE2NjbFxcV4eHgQEBBWVlaTk5NoaGiqqqpJSUnBwcGhoaE8PDxcXFyOjo4cHBzPz8+ysrJTU1NISEjT09MZGRkpKSnt06bIAAAV0UlEQVR4nO1di0LquhJtSKom6QNQAWX7xu3z/P/v3VmTpo1aoC0FZF/mnK2otGR1JvNMMlF0pCMd6UhHOtKRjnSkIx3pSEc60pGOdKQjHelIRzrSkQ6VpFLxoZJScj28WJ/dLMaz08Oj2Xhxc6ZjAon/6uFJlZ8MxWHT8CRbykipJtf0lsEgHYD2PdSWxGNOedjXk+8Y3Y/KjPwbDw2dp3LwI6MCZMWL+OpCiHTfY+yFCMXFVRwC5Bl4Qo8gPVTmfSXGcaKkDKU0HvEE/CcgAgbhGMWhlCoAFMX8S/2kPSgqRu0wEhaCqAIlehM+gkPm45fB35QQ1cO3973fjk4Oj0a3799wPBQQpYWIsq7Fr8d3uSL35wApVvnd2AFhPEJoNxHjqWD5haYR4lWGSuiwiEyCfCVF4gw/qc0p2wz5wj8Ihrkw633XX01SmUWA5wVw1KVI/W+umX+Hi1EyH689wlRcwmRM3CzE18uDlc+QpLwsEYmJjNS58Bp2aP4FgATRVAHSOanTYYnw4cDnoCcZmL9hFE2EV6338b6H1hvF94UBTMUkuisQpuJMrb/0QEi9FqgG4i46L3lo9j2uHsl4J0acR/dOtabiVh2wmfhKEiawkMw3UjTOeLDW2fvI+qLCQhDCYXRR8JNCxt7u34mcLe4JJAX0A2cRPyPh3dTX/fPQ9MZFqBp2TQciKlIX+1WlDExrbXtDeCZcMCHSyIeOe0DoXWAZGUsyqqXUPSL0fsw+EUYuOS2Jd9ZIQzL67yG0gBVpeqUjYyz96+nGzRFu1UJabYxJwD0TGW3pZdSeifXRXmOEUjaq57QbkZTSWGIWTT6WTIIqM2kzmdi2YioVja8u5GuKUKqP0dPizvQbNkqTEL8imUhiYkICSq8ygNSa4Lb4KBrW6/T2JKthTROE+CQkwolmycYIg/QzMZCUJwkoOIYfCGkECSWplW0mopTJjMdXw5tmPJTqqgj/Z5CsjtjKu5UwNXhnMfnAMeIbJiKhi7Qhrdr8ftKeOksu8h+Da4RQIsoqvIH7TVWOpMFrN8ks6xOJ2adhKoiHgGkSQtfGqZHmna16ivRSJ4T0YX9dMQoZne485NwWWBQlBUJj+dfEO/CSLb3N2loKGS1crYy869mP2L2plA4BztVy+DG1RMlPxWrNatMmNuFfEiaCCskk1MYQ9yKHrgX7MLipyxdiiF0RRvGlQ8j0HNN42sArRqwhkzT1SpcTaEkeM2JhgvnXwciTMMfnfmAbSGmQaMS3m3a5cENM02TOk4iVZqlBJCwCCadK2B/tFE5I1JKKOhOG1lHTEMV3XHRzwi7uGrp17KNEGT9qzdOuQMhCa8kQ0g9sHjqTeizq1Qzj7GcKrbFPg0CyKps+qKXLOAps/JUET0M6rYW7wvgSUipk+zKnZoiFtrFVqPkQE58FIioeO1p8kJHxc1j7/ljJRYLAAA15YJatHCvKhBgJB01j1gGb9PF8V4pfRIDwpi4J2throxk9qu4mxGQFRMYQsRNmnNeZQVGCf/wdFhCe6Jf1EV1IfZRDomGP4rr7NEdIT/uWoPnS6mde+yZWshBNlsAoszbxvpmEdbBsNDT9tCQUaENy8il8OT4Vt3GtRLSJD2X0JqqpOKxz/hHBYqJh8pFpY0UDZ4wtAUxF4oxHL/67sr4ogVEtlgh8qwhYmieRlkZj7KVMliMGLNKcicaMgzNGKoZ0J2afC+HZJPQUnkgz86t+iINjs+TG7Xgo6akNSqPxxhEejV4n7g0GoauBr0K4jHOlNWsXH8/2GHtJc+/zu0SnS4tlLbMYMv8kkUjZNA7ErSJ0FPxgguGPZBa0RZZMsumDLtUIiTAd+04RSHVZDBflz78/LX35vjNfjpk3ytOoiSg8VDyZawmxzJ0DHbGujKAsefLRb+ils+eyN9n0A4+vvZeVrtbsjDBNLy4umiGU6kWI8t7iWWfIrkRlNJQQKEREiGUJFPlr/U28L8N4xhx0yxBQo1/2PpOwlKZzkry1CIuZhJpjepHO53zvR2WzPCk8MY7SHfesYVZuJ3/l1t6lwntZVz8qSWyJYJ9IL5wBEvFwvhphWUogJj2K+edFyo8wFXfIjtnMuZYJ3xLcM3abFTr1WsyVlL3kGleGvCqdIU8gzSsjXM9DpMWgHjPS/TeCpBrGP51fiCsCbU3BRAQLHN32PvHCobAYlctITuKvH8V+B+e4TIJJwrq0wTwkR8wiK2aQJToXn/M5INIX8RFlMinfhfSKS+VsDSFUwQDc4xWGzyEHoflIvVvOKpsoh/PBdQsYgKUI2eKxqSaBtPRkciuvBSFEseNiLv5OlEmIt+7N21+lAnUOFeMWII6CHC5JmcZIEYqSnYqSDF7VK3xNMb9YKqXwuDBns0TDOaGLIpp1t4Kwsaq+SMkY9VhJWQsw+/SVeRLU2/CJJsyHhNQ7WWIOPTN68epTTBf1CNmcJ5z7opgO4i2znKTxTVwU8k32NjHNc3+bArR/RbF4NOXMX6XR4P9m4CBpBZcfIS2vzVmBcMU8tFFOgbqxOYw5J43oDtkYc50BCvFudiCdEc8BO4ZmxMMlmE9fnVEyURSNJlEGmwW/EQlmklLwYv45X+61WRf7cLCAuWgyOC/50K9hRIpxZ0vgFkFK7PObL4gnr51dRmrB8ESMHEJctRShhndJ3kmGZBkMA09ilXvfBnrqtjb67JlkFN+KtFz8O/8RoiLkhvHKOadgkISNslcxL9YnLNM0EUeypH2zDPpE5wiCNJmOD/9+QLze+jIqpBmmzky4Zzv57spgIibIvhIviCeZRobSvpargpfbQx3lXMCEtUfuiBQLlBYb3vKi5y1DxOrQmzI8TdlX+040yoynUgJ7gUCHBLZJ9KSjJEkYFEey1k86VSa6BKcYtyqo9ETvwidakzhkacNIJdcioTNINzVBCI0El0yTiIdKU8aP/hqIzsPK/NvGCPE8qyRK7fNESGPY/8q0K8A2jIC51qCtC+n5TsUNo/ikmPmDeh+/T4BXwqs2tw+m7k2avUsTpmyaVdcSDtxr7og1VV5wVsVpmxM7o+Unndc/S3JIku9l6ob1w3pzB57Gl+VUTOGi9oXoKxk1+VsawoG4VM1jl4bVtRV3U2/+Opojw5osah+ksmEwB/8s02l1rNh4PQ2Bvy+LP0XOq+eUTBQu1y5yfM2phxVDUs+CuXjfv4NKKvE+yNM+6VbD2xwhTYhsXl6aYo60RLD+AxaiqgmlWbv0weZSCkWeC+fu80CmfW5F4ZUuU350bqaLXLW7fT/r2lADqgT1PO4VYXweeDJrynp1Y+sDIZnFq9JakSo46THQkPFJoMg6OBV9IJSFS1UiFHe9QZRcXi/L2Gft14H0tvqSXNRBFZt2GMlP+v7kUvHYIX7pCSFit+cg+u7Lfwt8NWLkc5f9kD2uoMVWuEpQe/HfuA5UGsLrTnaoN4Tg4m2pUbGGTm20DAGOp7NCfD8kDmPZZfFnn6ugJaeJyio4LHPnTX64UmaVr8ZV7E536hUhrxEsufi0rO7c7GZcxa7ipfeui3d7RAgZQrq2HNQfqboXoIySf4I99X+t7CgQPa/VlzrMNGziopZVbM7kie5Fg74Rqsk8MBobpBhRxfYIxfzHMTPNqe/9FjLw3woXtRPFX7IjVxsIQ+8Io/jB3cSNrZuLKr+uOHyIN1BZW9gzE79i6vi7vnbhIqrYbiyYhJ1uUd2rf4SIBoKI9aH9+KoN2IPOYlDdbBv7noKN/Z0iuo8wt73phtbt7OyKp3x4T3HDli6q8iuuuYp9vWkgthWEpG4W/gQY+ooqeIuL87/CXzroIeuzHR5K6R0SLraftljVhu0vg7JS8GfzzF3/CDkrG1/Ny+MLsM+jISfIMVMz3tDqayFX8aYLc7ahS2UQmReC2jCJa1T09u10qtdYbrYWfBsIudAXAIRNmzbiopTT0Jayxqlbf9+GtjEP45uvR/alTic2uXLk3hyyn7fobED9e2184lsJrTqKarRmRhW7AYqS+yAA6pY9dV7P33NsQf/fBvIpSsUPL3z1ILGBKS1NTOUVpS6L3pX65+EfESSkPoU3GryieCUP5bXwpzrQl88qBUWx9AZHHvUZ4+N25kn4E1Jw4/yk9E/oy1NWX9mEtlTZk/CnGaKKTXZf+IMBB2JmOi/n7DcTpfL//O2gQGdaxc+VyEIxypoNU5i78jFMDpAzqpKZi+4dfeZq/1kM4gNK0SVCcW9hwael3sGfxmfRj+ko4+hsLMKU+VQVuw0qeb/46Oi/9clDjgkqVc8eF8F+KxEyT54e82BjP46bzh+fyr8yvSm3C+lPFaKkzr3ZI0L55VitQWDjnYvKyt9/0vjkKsHhhgQvuToZl5/rzEvpjDL/g0fWLdTvrW7BcXnwyM/LGoOUC+eAF38rXpyevs1Ov/7KudyL8sJIPYsgAVu7ZH1XCIvAvnreJ0Gdr7ADXlgHzo8rRXdQ1Qd/2BT1GK5kEzcdBLWn+iFyY0Hm4lsB0SWWip19ThLLA2P5Z39EDm/gkOGduXzo4zCx1mvYEkKok2klTWnNdtz4aviFxXWEPw+vflz5EFw46ODe9MJDaW4rY1a/+EtFI7H6CG38bRTVXPmSVgnYtH2Bpg+EyryJtHKU04+fOg9u9dVYrKZxXbhLgjqpbp2m1bbH3SFUGv5WkQNGVmbJ1Uo94ACSYhb6Dyt/mj2oZRfm5ZIv7JibtVtQszlClX9WW/7pEa/Iyaj4ZTp3sAKEeDmfvsQrNtjZcZXjJ3d+0sZqbIzQOTLlqsG35S4yfq/i7HU6+yads+lrFqvlu/hQSlyEgop5sCuENLtEKaL05XatqpMqNvnZzfWfp9Ph6dOf65uz3MTrXE6jzNTHYW4/XtxYp26GUOJIg2DBUrO1BGRciCTIvVh/BT2Y8yrupH+vjf3wzRBinXdw0ELz5fp+N35TnYHFX1UcNmiToNoEoeSUU7XD46Sl29hK68tw2XybBFV3hLzGu9zBMuA62ja3I0iU7UpyU6LJ53VGKPkQiUqJok673Y1BUgYrpPDBzc5z6o4Q2ekgRnjpccnlsk+U6iOISVJxbxoMtCtCpceYgsVuXLdIf7sAHcSJO5F74CKScbJepXZEqPLTIljiaf/flpbo13xwNiviLx7pf/laiN0Q+q24DqJ42tXmQ3x0VK5q52Md1pZfOyGMr1KuLxTOzGKnR9Sr6LYIGAe8+vtHRPn9/S1P/mDbW9TOuE/Nhjn3DoQClfCZuQGH26sG0JaHCPRKs8QZzvqzi7ZJfEJbkC1+XDmC9jwMi4ObrwXpRj/SXiu8v3ZnDEV8qIg/nB7f7vbRqEW61GXq0hsDrr8t3YTRVkpjn6R3iqZuI+dOyB2NEZQBlpYYW56iVKboXUixxf2Ga0jGLwNRVlEp8l56IEA7KbVvoRn87Fos6YXU5L9qMKl4X7bfq/lJyVhY/iSqrC7vNdwjQvarBlXsNlviV7U4kQ7FQa9DXXFw2xjWEB9nVglqWg+xuZR+3b21UeG5J5Ko+VTZ4iVqofnZl1feBHEl5XL/AKPCvSnajEHz1a30bHx+aXCK5qDuqNc9kRqF6fbup13zGbTBlp/n7SYsmpN0uaKqZPLxY1xNzxG+FUHCYrUjuFOS1ZJwfviLTiclQ48OCzPhHJlfAxDEOVsfTg1/WP6GJw6oostO2iAg2znxBoiiyPrXfHfemp7J/sevA5q/7CAj05KwysVlb8T9D/lqqml8Hm/449ibX0AS9TdHVz+ef1NroVzCebY+87MXQg0TVLONtrnFn4zeF1s+ZKc7kX65W7yP6rZHtehRgiYgv09CS8Lw1nltK/s9/V5oIdWM8ku/p1/Us6s/Cnt2/Zq+a71S2HftN/XO64/C3nnl6dH/Wv/DYh6++R6W6T/Xw7IwEefoQ1p46P9qH9J/tZfsoDCCE/QD9rTd4/N2SOXC5YH4z60RLeif7Okc/x/05Y6UXybqeqtHh+Kr1RGPXl37pWI4gyxyUWDqF48tzG8NJBqSVMYfyTvwyVR3xqvDjLXMch+ls35IylieCb+Zkb5MYy5g4+COajm6GN/lKlaHSLHKH8ciOBAo9Yd3BrtCHL3fjk4Oj0a3799wVEfyqpvg1+FuzoOjL4O/qXQK7wB1PVb4TYMDpfLEaEYSrKaQvBdXBLusDpsckNGXNXfcjC5cFnvQxDi+tvqTXCL/XL3543CIUHy+xOE6DfdCWWxwceIc7I3YCQ3KjRudP7acirjDyKoAWcXJeHJdvbensTcbncuKzS82RshCeL30gCnsPD4ZrrvV1og7EW1Mw5Ns2TYc59+oWJ/dLMaz013SbDb7j79udpfx5c1ZEqu1TeywSXdHxOfD07cYe2clvsvNbthzD/FuxAGO5LP0Em5LoLl/Cnq+JGZ3jWu2StyOAD0zoghdL7lRaR5Fues8fsBUcSfhXoKRLfrCcE+zRFq0Mtpq06+tkqy+oImzRS+DsvM4enCg8zMa/eyq+1DvhDbxruuca1QtuWGp6zyOiWgs94hJDpeHBl21eJJJW7QVRH8YEzlZRbce7odyaIqG7ZLhllqEzLoeZhBJPtiEOGk1GEiz0drd9I7qlyQPOrGJ5C6QxrWHRzO+BA3NrETfDYnGz4336/0qktwahTUJ2sVzI0EHA03VtUYba1I4uuxNu7+hdiCMllvUGEDjprK6Ol+YJZL+5LjsErQHgq8YpuHZhQmGJtVsFFipoNWeSbiLm0Wr0kMkZw009CVrStafjA9dItFj1ynSsDv3IZG03NQS3aqhJo3MtHPJoGccKkJb+mUHhdHt7LCQSBjyBMadvhuebK53PHdG4w5gB0fsnfDkYh5xjzB2wDQsBQBZjhiMPUh4IImJB6+SGxCCdwiDEnY3+e8ZS+/SDTy/j7xqN8VZGGg4rtFw1jqrB0cziThMcN7Z/njX9XNl0WfW6QyoTM3d9Vw/dfDOok8fie2+oz00wu1glZzGMLbwwrjZpeGOx4a5BksYsbO57zjBddFtQe7QVG68muRZFSKwCWSZTVwDwkQnrtvz/ohHStPfZvnat7pj4jBaTQPPJBrHkyaJbMIqEoKAaed7q5vy7bum0vUjBmRkkmn+5JluyEOYApptpCcRDtBES/jaxHkmcDrRX51Q66Z33BqhdTWSPwahGj35LFt7CWSTrsnQTtbA1ZRJxgadXGvrxNS4Dsl79qD5wynQxEgl+thHUZYtn4fFMSvSJVAyNIinJ0OCiiQLocvQUN64lnmkaawuTMeeMLLbkXDTTWNyGpflsFQjqbfsCkZH72PuQG9mGWvQjNiXU+RHl9Nrp4olh/F7M3oyKnqPaw61Ta7RZJ2GKHUCiV1GsHgQRvCcZRSMMpKTR7AyiSyE3X/QDsDUkusBjwkI3yrDiHnomtXHUsUApYh+6tZAZcJ007Xo9wmbji7Ylh+b9rK5R9LcWDtBh3sLA0GjJFWoOUojAPJ/LcAgYe3fjqcAAAAASUVORK5CYII=;" vertex="1" parent="1">
          <mxGeometry x="370" y="280" width="50" height="50" as="geometry" />
        </mxCell>
        <mxCell id="BcmExChnxHGvDrvImLiJ-17" value="拒绝" style="edgeStyle=orthogonalEdgeStyle;rounded=0;orthogonalLoop=1;jettySize=auto;html=1;entryX=1;entryY=0.5;entryDx=0;entryDy=0;fontColor=#000000;exitX=1;exitY=0.5;exitDx=0;exitDy=0;" edge="1" parent="1" source="BcmExChnxHGvDrvImLiJ-11" target="BcmExChnxHGvDrvImLiJ-15">
          <mxGeometry x="0.25" relative="1" as="geometry">
            <Array as="points">
              <mxPoint x="550" y="450" />
              <mxPoint x="550" y="725" />
            </Array>
            <mxPoint as="offset" />
          </mxGeometry>
        </mxCell>
        <mxCell id="BcmExChnxHGvDrvImLiJ-21" value="同意" style="edgeStyle=orthogonalEdgeStyle;rounded=0;orthogonalLoop=1;jettySize=auto;html=1;entryX=0.5;entryY=0;entryDx=0;entryDy=0;fontColor=#000000;" edge="1" parent="1" source="BcmExChnxHGvDrvImLiJ-11">
          <mxGeometry relative="1" as="geometry">
            <mxPoint x="245" y="500" as="targetPoint" />
          </mxGeometry>
        </mxCell>
        <mxCell id="BcmExChnxHGvDrvImLiJ-11" value="审核" style="rhombus;whiteSpace=wrap;html=1;fillColor=#e3c800;fontColor=#000000;strokeColor=#B09500;" vertex="1" parent="1">
          <mxGeometry x="355" y="430" width="80" height="40" as="geometry" />
        </mxCell>
        <mxCell id="BcmExChnxHGvDrvImLiJ-15" value="End" style="ellipse;whiteSpace=wrap;html=1;aspect=fixed;fillColor=#e3c800;fontColor=#000000;strokeColor=#B09500;" vertex="1" parent="1">
          <mxGeometry x="370" y="700" width="50" height="50" as="geometry" />
        </mxCell>
        <mxCell id="BcmExChnxHGvDrvImLiJ-16" value="send to 直属 leader" style="text;html=1;align=center;verticalAlign=middle;resizable=0;points=[];autosize=1;strokeColor=none;fillColor=none;" vertex="1" parent="1">
          <mxGeometry x="430" y="295" width="120" height="20" as="geometry" />
        </mxCell>
        <mxCell id="BcmExChnxHGvDrvImLiJ-31" value="同意" style="edgeStyle=orthogonalEdgeStyle;rounded=0;orthogonalLoop=1;jettySize=auto;html=1;entryX=0;entryY=0.5;entryDx=0;entryDy=0;fontColor=#000000;" edge="1" parent="1" target="BcmExChnxHGvDrvImLiJ-15">
          <mxGeometry x="-0.7647" relative="1" as="geometry">
            <mxPoint x="245" y="680" as="sourcePoint" />
            <Array as="points">
              <mxPoint x="245" y="725" />
            </Array>
            <mxPoint as="offset" />
          </mxGeometry>
        </mxCell>
        <mxCell id="BcmExChnxHGvDrvImLiJ-43" style="edgeStyle=orthogonalEdgeStyle;rounded=0;orthogonalLoop=1;jettySize=auto;html=1;entryX=0;entryY=0.5;entryDx=0;entryDy=0;fontColor=#000000;" edge="1" parent="1" source="BcmExChnxHGvDrvImLiJ-23" target="BcmExChnxHGvDrvImLiJ-42">
          <mxGeometry relative="1" as="geometry">
            <Array as="points">
              <mxPoint x="160" y="600" />
              <mxPoint x="160" y="195" />
            </Array>
          </mxGeometry>
        </mxCell>
        <mxCell id="BcmExChnxHGvDrvImLiJ-48" style="edgeStyle=orthogonalEdgeStyle;rounded=0;orthogonalLoop=1;jettySize=auto;html=1;entryX=0.5;entryY=0;entryDx=0;entryDy=0;fontColor=#000000;" edge="1" parent="1" source="BcmExChnxHGvDrvImLiJ-23" target="BcmExChnxHGvDrvImLiJ-27">
          <mxGeometry relative="1" as="geometry" />
        </mxCell>
        <mxCell id="BcmExChnxHGvDrvImLiJ-23" value="galaxy.wang&lt;br&gt;flink.zhang" style="rounded=1;whiteSpace=wrap;html=1;fillColor=#a20025;fontColor=#ffffff;strokeColor=#6F0000;" vertex="1" parent="1">
          <mxGeometry x="190" y="580" width="110" height="40" as="geometry" />
        </mxCell>
        <mxCell id="BcmExChnxHGvDrvImLiJ-25" style="edgeStyle=orthogonalEdgeStyle;rounded=0;orthogonalLoop=1;jettySize=auto;html=1;entryX=0.5;entryY=0;entryDx=0;entryDy=0;fontColor=#000000;" edge="1" parent="1" source="BcmExChnxHGvDrvImLiJ-24" target="BcmExChnxHGvDrvImLiJ-23">
          <mxGeometry relative="1" as="geometry" />
        </mxCell>
        <mxCell id="BcmExChnxHGvDrvImLiJ-24" value="" style="shape=image;verticalLabelPosition=bottom;labelBackgroundColor=default;verticalAlign=top;aspect=fixed;imageAspect=0;image=data:image/png,iVBORw0KGgoAAAANSUhEUgAAAOEAAADhCAMAAAAJbSJIAAAAilBMVEX29vYAAAABAQH39/f8/Pz///+cnJwuLi64uLjs7Ozz8/Pv7+/r6+sFBQXo6Ojl5eUmJiZ/f39CQkKIiIgSEhJhYWHY2NhxcXE2NjbFxcV4eHgQEBBWVlaTk5NoaGiqqqpJSUnBwcGhoaE8PDxcXFyOjo4cHBzPz8+ysrJTU1NISEjT09MZGRkpKSnt06bIAAAV0UlEQVR4nO1di0LquhJtSKom6QNQAWX7xu3z/P/v3VmTpo1aoC0FZF/mnK2otGR1JvNMMlF0pCMd6UhHOtKRjnSkIx3pSEc60pGOdKQjHelIRzrSkQ6VpFLxoZJScj28WJ/dLMaz08Oj2Xhxc6ZjAon/6uFJlZ8MxWHT8CRbykipJtf0lsEgHYD2PdSWxGNOedjXk+8Y3Y/KjPwbDw2dp3LwI6MCZMWL+OpCiHTfY+yFCMXFVRwC5Bl4Qo8gPVTmfSXGcaKkDKU0HvEE/CcgAgbhGMWhlCoAFMX8S/2kPSgqRu0wEhaCqAIlehM+gkPm45fB35QQ1cO3973fjk4Oj0a3799wPBQQpYWIsq7Fr8d3uSL35wApVvnd2AFhPEJoNxHjqWD5haYR4lWGSuiwiEyCfCVF4gw/qc0p2wz5wj8Ihrkw633XX01SmUWA5wVw1KVI/W+umX+Hi1EyH689wlRcwmRM3CzE18uDlc+QpLwsEYmJjNS58Bp2aP4FgATRVAHSOanTYYnw4cDnoCcZmL9hFE2EV6338b6H1hvF94UBTMUkuisQpuJMrb/0QEi9FqgG4i46L3lo9j2uHsl4J0acR/dOtabiVh2wmfhKEiawkMw3UjTOeLDW2fvI+qLCQhDCYXRR8JNCxt7u34mcLe4JJAX0A2cRPyPh3dTX/fPQ9MZFqBp2TQciKlIX+1WlDExrbXtDeCZcMCHSyIeOe0DoXWAZGUsyqqXUPSL0fsw+EUYuOS2Jd9ZIQzL67yG0gBVpeqUjYyz96+nGzRFu1UJabYxJwD0TGW3pZdSeifXRXmOEUjaq57QbkZTSWGIWTT6WTIIqM2kzmdi2YioVja8u5GuKUKqP0dPizvQbNkqTEL8imUhiYkICSq8ygNSa4Lb4KBrW6/T2JKthTROE+CQkwolmycYIg/QzMZCUJwkoOIYfCGkECSWplW0mopTJjMdXw5tmPJTqqgj/Z5CsjtjKu5UwNXhnMfnAMeIbJiKhi7Qhrdr8ftKeOksu8h+Da4RQIsoqvIH7TVWOpMFrN8ks6xOJ2adhKoiHgGkSQtfGqZHmna16ivRSJ4T0YX9dMQoZne485NwWWBQlBUJj+dfEO/CSLb3N2loKGS1crYy869mP2L2plA4BztVy+DG1RMlPxWrNatMmNuFfEiaCCskk1MYQ9yKHrgX7MLipyxdiiF0RRvGlQ8j0HNN42sArRqwhkzT1SpcTaEkeM2JhgvnXwciTMMfnfmAbSGmQaMS3m3a5cENM02TOk4iVZqlBJCwCCadK2B/tFE5I1JKKOhOG1lHTEMV3XHRzwi7uGrp17KNEGT9qzdOuQMhCa8kQ0g9sHjqTeizq1Qzj7GcKrbFPg0CyKps+qKXLOAps/JUET0M6rYW7wvgSUipk+zKnZoiFtrFVqPkQE58FIioeO1p8kJHxc1j7/ljJRYLAAA15YJatHCvKhBgJB01j1gGb9PF8V4pfRIDwpi4J2throxk9qu4mxGQFRMYQsRNmnNeZQVGCf/wdFhCe6Jf1EV1IfZRDomGP4rr7NEdIT/uWoPnS6mde+yZWshBNlsAoszbxvpmEdbBsNDT9tCQUaENy8il8OT4Vt3GtRLSJD2X0JqqpOKxz/hHBYqJh8pFpY0UDZ4wtAUxF4oxHL/67sr4ogVEtlgh8qwhYmieRlkZj7KVMliMGLNKcicaMgzNGKoZ0J2afC+HZJPQUnkgz86t+iINjs+TG7Xgo6akNSqPxxhEejV4n7g0GoauBr0K4jHOlNWsXH8/2GHtJc+/zu0SnS4tlLbMYMv8kkUjZNA7ErSJ0FPxgguGPZBa0RZZMsumDLtUIiTAd+04RSHVZDBflz78/LX35vjNfjpk3ytOoiSg8VDyZawmxzJ0DHbGujKAsefLRb+ils+eyN9n0A4+vvZeVrtbsjDBNLy4umiGU6kWI8t7iWWfIrkRlNJQQKEREiGUJFPlr/U28L8N4xhx0yxBQo1/2PpOwlKZzkry1CIuZhJpjepHO53zvR2WzPCk8MY7SHfesYVZuJ3/l1t6lwntZVz8qSWyJYJ9IL5wBEvFwvhphWUogJj2K+edFyo8wFXfIjtnMuZYJ3xLcM3abFTr1WsyVlL3kGleGvCqdIU8gzSsjXM9DpMWgHjPS/TeCpBrGP51fiCsCbU3BRAQLHN32PvHCobAYlctITuKvH8V+B+e4TIJJwrq0wTwkR8wiK2aQJToXn/M5INIX8RFlMinfhfSKS+VsDSFUwQDc4xWGzyEHoflIvVvOKpsoh/PBdQsYgKUI2eKxqSaBtPRkciuvBSFEseNiLv5OlEmIt+7N21+lAnUOFeMWII6CHC5JmcZIEYqSnYqSDF7VK3xNMb9YKqXwuDBns0TDOaGLIpp1t4Kwsaq+SMkY9VhJWQsw+/SVeRLU2/CJJsyHhNQ7WWIOPTN68epTTBf1CNmcJ5z7opgO4i2znKTxTVwU8k32NjHNc3+bArR/RbF4NOXMX6XR4P9m4CBpBZcfIS2vzVmBcMU8tFFOgbqxOYw5J43oDtkYc50BCvFudiCdEc8BO4ZmxMMlmE9fnVEyURSNJlEGmwW/EQlmklLwYv45X+61WRf7cLCAuWgyOC/50K9hRIpxZ0vgFkFK7PObL4gnr51dRmrB8ESMHEJctRShhndJ3kmGZBkMA09ilXvfBnrqtjb67JlkFN+KtFz8O/8RoiLkhvHKOadgkISNslcxL9YnLNM0EUeypH2zDPpE5wiCNJmOD/9+QLze+jIqpBmmzky4Zzv57spgIibIvhIviCeZRobSvpargpfbQx3lXMCEtUfuiBQLlBYb3vKi5y1DxOrQmzI8TdlX+040yoynUgJ7gUCHBLZJ9KSjJEkYFEey1k86VSa6BKcYtyqo9ETvwidakzhkacNIJdcioTNINzVBCI0El0yTiIdKU8aP/hqIzsPK/NvGCPE8qyRK7fNESGPY/8q0K8A2jIC51qCtC+n5TsUNo/ikmPmDeh+/T4BXwqs2tw+m7k2avUsTpmyaVdcSDtxr7og1VV5wVsVpmxM7o+Unndc/S3JIku9l6ob1w3pzB57Gl+VUTOGi9oXoKxk1+VsawoG4VM1jl4bVtRV3U2/+Opojw5osah+ksmEwB/8s02l1rNh4PQ2Bvy+LP0XOq+eUTBQu1y5yfM2phxVDUs+CuXjfv4NKKvE+yNM+6VbD2xwhTYhsXl6aYo60RLD+AxaiqgmlWbv0weZSCkWeC+fu80CmfW5F4ZUuU350bqaLXLW7fT/r2lADqgT1PO4VYXweeDJrynp1Y+sDIZnFq9JakSo46THQkPFJoMg6OBV9IJSFS1UiFHe9QZRcXi/L2Gft14H0tvqSXNRBFZt2GMlP+v7kUvHYIX7pCSFit+cg+u7Lfwt8NWLkc5f9kD2uoMVWuEpQe/HfuA5UGsLrTnaoN4Tg4m2pUbGGTm20DAGOp7NCfD8kDmPZZfFnn6ugJaeJyio4LHPnTX64UmaVr8ZV7E536hUhrxEsufi0rO7c7GZcxa7ipfeui3d7RAgZQrq2HNQfqboXoIySf4I99X+t7CgQPa/VlzrMNGziopZVbM7kie5Fg74Rqsk8MBobpBhRxfYIxfzHMTPNqe/9FjLw3woXtRPFX7IjVxsIQ+8Io/jB3cSNrZuLKr+uOHyIN1BZW9gzE79i6vi7vnbhIqrYbiyYhJ1uUd2rf4SIBoKI9aH9+KoN2IPOYlDdbBv7noKN/Z0iuo8wt73phtbt7OyKp3x4T3HDli6q8iuuuYp9vWkgthWEpG4W/gQY+ooqeIuL87/CXzroIeuzHR5K6R0SLraftljVhu0vg7JS8GfzzF3/CDkrG1/Ny+MLsM+jISfIMVMz3tDqayFX8aYLc7ahS2UQmReC2jCJa1T09u10qtdYbrYWfBsIudAXAIRNmzbiopTT0Jayxqlbf9+GtjEP45uvR/alTic2uXLk3hyyn7fobED9e2184lsJrTqKarRmRhW7AYqS+yAA6pY9dV7P33NsQf/fBvIpSsUPL3z1ILGBKS1NTOUVpS6L3pX65+EfESSkPoU3GryieCUP5bXwpzrQl88qBUWx9AZHHvUZ4+N25kn4E1Jw4/yk9E/oy1NWX9mEtlTZk/CnGaKKTXZf+IMBB2JmOi/n7DcTpfL//O2gQGdaxc+VyEIxypoNU5i78jFMDpAzqpKZi+4dfeZq/1kM4gNK0SVCcW9hwael3sGfxmfRj+ko4+hsLMKU+VQVuw0qeb/46Oi/9clDjgkqVc8eF8F+KxEyT54e82BjP46bzh+fyr8yvSm3C+lPFaKkzr3ZI0L55VitQWDjnYvKyt9/0vjkKsHhhgQvuToZl5/rzEvpjDL/g0fWLdTvrW7BcXnwyM/LGoOUC+eAF38rXpyevs1Ov/7KudyL8sJIPYsgAVu7ZH1XCIvAvnreJ0Gdr7ADXlgHzo8rRXdQ1Qd/2BT1GK5kEzcdBLWn+iFyY0Hm4lsB0SWWip19ThLLA2P5Z39EDm/gkOGduXzo4zCx1mvYEkKok2klTWnNdtz4aviFxXWEPw+vflz5EFw46ODe9MJDaW4rY1a/+EtFI7H6CG38bRTVXPmSVgnYtH2Bpg+EyryJtHKU04+fOg9u9dVYrKZxXbhLgjqpbp2m1bbH3SFUGv5WkQNGVmbJ1Uo94ACSYhb6Dyt/mj2oZRfm5ZIv7JibtVtQszlClX9WW/7pEa/Iyaj4ZTp3sAKEeDmfvsQrNtjZcZXjJ3d+0sZqbIzQOTLlqsG35S4yfq/i7HU6+yads+lrFqvlu/hQSlyEgop5sCuENLtEKaL05XatqpMqNvnZzfWfp9Ph6dOf65uz3MTrXE6jzNTHYW4/XtxYp26GUOJIg2DBUrO1BGRciCTIvVh/BT2Y8yrupH+vjf3wzRBinXdw0ELz5fp+N35TnYHFX1UcNmiToNoEoeSUU7XD46Sl29hK68tw2XybBFV3hLzGu9zBMuA62ja3I0iU7UpyU6LJ53VGKPkQiUqJok673Y1BUgYrpPDBzc5z6o4Q2ekgRnjpccnlsk+U6iOISVJxbxoMtCtCpceYgsVuXLdIf7sAHcSJO5F74CKScbJepXZEqPLTIljiaf/flpbo13xwNiviLx7pf/laiN0Q+q24DqJ42tXmQ3x0VK5q52Md1pZfOyGMr1KuLxTOzGKnR9Sr6LYIGAe8+vtHRPn9/S1P/mDbW9TOuE/Nhjn3DoQClfCZuQGH26sG0JaHCPRKs8QZzvqzi7ZJfEJbkC1+XDmC9jwMi4ObrwXpRj/SXiu8v3ZnDEV8qIg/nB7f7vbRqEW61GXq0hsDrr8t3YTRVkpjn6R3iqZuI+dOyB2NEZQBlpYYW56iVKboXUixxf2Ga0jGLwNRVlEp8l56IEA7KbVvoRn87Fos6YXU5L9qMKl4X7bfq/lJyVhY/iSqrC7vNdwjQvarBlXsNlviV7U4kQ7FQa9DXXFw2xjWEB9nVglqWg+xuZR+3b21UeG5J5Ko+VTZ4iVqofnZl1feBHEl5XL/AKPCvSnajEHz1a30bHx+aXCK5qDuqNc9kRqF6fbup13zGbTBlp/n7SYsmpN0uaKqZPLxY1xNzxG+FUHCYrUjuFOS1ZJwfviLTiclQ48OCzPhHJlfAxDEOVsfTg1/WP6GJw6oostO2iAg2znxBoiiyPrXfHfemp7J/sevA5q/7CAj05KwysVlb8T9D/lqqml8Hm/449ibX0AS9TdHVz+ef1NroVzCebY+87MXQg0TVLONtrnFn4zeF1s+ZKc7kX65W7yP6rZHtehRgiYgv09CS8Lw1nltK/s9/V5oIdWM8ku/p1/Us6s/Cnt2/Zq+a71S2HftN/XO64/C3nnl6dH/Wv/DYh6++R6W6T/Xw7IwEefoQ1p46P9qH9J/tZfsoDCCE/QD9rTd4/N2SOXC5YH4z60RLeif7Okc/x/05Y6UXybqeqtHh+Kr1RGPXl37pWI4gyxyUWDqF48tzG8NJBqSVMYfyTvwyVR3xqvDjLXMch+ls35IylieCb+Zkb5MYy5g4+COajm6GN/lKlaHSLHKH8ciOBAo9Yd3BrtCHL3fjk4Oj0a3799wVEfyqpvg1+FuzoOjL4O/qXQK7wB1PVb4TYMDpfLEaEYSrKaQvBdXBLusDpsckNGXNXfcjC5cFnvQxDi+tvqTXCL/XL3543CIUHy+xOE6DfdCWWxwceIc7I3YCQ3KjRudP7acirjDyKoAWcXJeHJdvbensTcbncuKzS82RshCeL30gCnsPD4ZrrvV1og7EW1Mw5Ns2TYc59+oWJ/dLMaz013SbDb7j79udpfx5c1ZEqu1TeywSXdHxOfD07cYe2clvsvNbthzD/FuxAGO5LP0Em5LoLl/Cnq+JGZ3jWu2StyOAD0zoghdL7lRaR5Fues8fsBUcSfhXoKRLfrCcE+zRFq0Mtpq06+tkqy+oImzRS+DsvM4enCg8zMa/eyq+1DvhDbxruuca1QtuWGp6zyOiWgs94hJDpeHBl21eJJJW7QVRH8YEzlZRbce7odyaIqG7ZLhllqEzLoeZhBJPtiEOGk1GEiz0drd9I7qlyQPOrGJ5C6QxrWHRzO+BA3NrETfDYnGz4336/0qktwahTUJ2sVzI0EHA03VtUYba1I4uuxNu7+hdiCMllvUGEDjprK6Ol+YJZL+5LjsErQHgq8YpuHZhQmGJtVsFFipoNWeSbiLm0Wr0kMkZw009CVrStafjA9dItFj1ynSsDv3IZG03NQS3aqhJo3MtHPJoGccKkJb+mUHhdHt7LCQSBjyBMadvhuebK53PHdG4w5gB0fsnfDkYh5xjzB2wDQsBQBZjhiMPUh4IImJB6+SGxCCdwiDEnY3+e8ZS+/SDTy/j7xqN8VZGGg4rtFw1jqrB0cziThMcN7Z/njX9XNl0WfW6QyoTM3d9Vw/dfDOok8fie2+oz00wu1glZzGMLbwwrjZpeGOx4a5BksYsbO57zjBddFtQe7QVG68muRZFSKwCWSZTVwDwkQnrtvz/ohHStPfZvnat7pj4jBaTQPPJBrHkyaJbMIqEoKAaed7q5vy7bum0vUjBmRkkmn+5JluyEOYApptpCcRDtBES/jaxHkmcDrRX51Q66Z33BqhdTWSPwahGj35LFt7CWSTrsnQTtbA1ZRJxgadXGvrxNS4Dsl79qD5wynQxEgl+thHUZYtn4fFMSvSJVAyNIinJ0OCiiQLocvQUN64lnmkaawuTMeeMLLbkXDTTWNyGpflsFQjqbfsCkZH72PuQG9mGWvQjNiXU+RHl9Nrp4olh/F7M3oyKnqPaw61Ta7RZJ2GKHUCiV1GsHgQRvCcZRSMMpKTR7AyiSyE3X/QDsDUkusBjwkI3yrDiHnomtXHUsUApYh+6tZAZcJ007Xo9wmbji7Ylh+b9rK5R9LcWDtBh3sLA0GjJFWoOUojAPJ/LcAgYe3fjqcAAAAASUVORK5CYII=;" vertex="1" parent="1">
          <mxGeometry x="220" y="500" width="50" height="50" as="geometry" />
        </mxCell>
        <mxCell id="BcmExChnxHGvDrvImLiJ-26" value="send to galaxy &amp;amp; flink" style="text;html=1;align=center;verticalAlign=middle;resizable=0;points=[];autosize=1;strokeColor=none;fillColor=none;" vertex="1" parent="1">
          <mxGeometry x="284" y="515" width="130" height="20" as="geometry" />
        </mxCell>
        <mxCell id="BcmExChnxHGvDrvImLiJ-29" value="拒绝" style="edgeStyle=orthogonalEdgeStyle;rounded=0;orthogonalLoop=1;jettySize=auto;html=1;entryX=0.5;entryY=0;entryDx=0;entryDy=0;fontColor=#000000;" edge="1" parent="1" source="BcmExChnxHGvDrvImLiJ-27" target="BcmExChnxHGvDrvImLiJ-15">
          <mxGeometry x="-0.2667" relative="1" as="geometry">
            <Array as="points">
              <mxPoint x="395" y="660" />
            </Array>
            <mxPoint as="offset" />
          </mxGeometry>
        </mxCell>
        <mxCell id="BcmExChnxHGvDrvImLiJ-27" value="审核" style="rhombus;whiteSpace=wrap;html=1;fillColor=#e3c800;fontColor=#000000;strokeColor=#B09500;" vertex="1" parent="1">
          <mxGeometry x="205" y="640" width="80" height="40" as="geometry" />
        </mxCell>
        <mxCell id="BcmExChnxHGvDrvImLiJ-44" style="edgeStyle=orthogonalEdgeStyle;rounded=0;orthogonalLoop=1;jettySize=auto;html=1;fontColor=#000000;" edge="1" parent="1" source="BcmExChnxHGvDrvImLiJ-42">
          <mxGeometry relative="1" as="geometry">
            <mxPoint x="360" y="195" as="targetPoint" />
          </mxGeometry>
        </mxCell>
        <mxCell id="BcmExChnxHGvDrvImLiJ-42" value="" style="shape=image;verticalLabelPosition=bottom;labelBackgroundColor=default;verticalAlign=top;aspect=fixed;imageAspect=0;image=data:image/png,iVBORw0KGgoAAAANSUhEUgAAAOEAAADhCAMAAAAJbSJIAAABRFBMVEX///8wcf8A17oLOZs81rgaZ//l/Pj5+/54mv96m/73+P92l/8xc/8A1roA1bYKOJozd/+Lpv8LX/8A3bvx9f8AJpYlbP8pb/8ALZjm7P4faf8A0rEFNpoAVv4AWv8UY//1/fzQ9O1iZa0AI5fP2f4AGJQOAJZFef7Azf6ftP0AK5cATP8Ns7QAAIzY4P5Vhf4aTLYpZeCovf4AK4cmX9IgVsvp7/7a8vJv28VN2b+G4dSw7N+Y59eC5NDe+PO47uPE6uvd4Oo62cLT2eyzvtyQnM2FicFydbRdXqp3eriXp9HEzOKTrf5tbLNMUaQvRKGc09pJTKILybgUk60MS585P6AA5bwVZKQYn7EAAG8NprAUxb+UnscPfagScqaprtEORJ+r+ONCW6m7x/5Ug/6tu+YjIqVmgMwAQdkASsymu/1hjv65QHTdAAAJYElEQVR4nO2c+1PbxhaA2QjhgGXLT0mWZctgO34kGAyE8gyXQngUBy5poGmblrb2ve3F///vd2Ug+G3t7pG1mdkvM5lJ8Hj0cc6ePXske2ZGIBAIBAKBQCAQCAQCgUAgEAgEAoFAIBAIBAKBQCAQCCaQm4PGb6M+vtuahWZ7hyvJ3RfwhGd3An57PTO3nfbAMb3FUxj3wp4o5vz26uJg1gPH9H7Ob68u5rY9UAzv+q3Vw34Y3DE8u+i3VQ+78Jka3nrnt1UPi+CZGuJrKc7MvNuCj+KB31K95PagMzU8y1eezuR2oTM1veW3Ux+5A3BFzvLUg3ozm/NbqZ854HoT5i1PcaYCK6b52vcdcvuwh42Q30JD2ANVTPPVnz5wAKuY89tnCKCK4R2/dYbxr3QITpG3zuaBRcgObt9vm6FA7v2cnRSfAFQM8bftd4BTDG/zGURIRT5XIqAit0F0FGF2jdCe3yqjgIoib1OpLsD2RR670wcWZ0EEw5zN3bo5gAkip7t+B5g2PM1trZkBUgxvc1trZoCOxLyNh3uBmN2kd3J+a4wDYlvkOk1ncgCK/E2He/iOXZHzNIXo377n6emFIbDf7edwONxDbpfZcC/X/YYLic3DDpubCT4ev8ntMyqGv889vNPm0fH7k/PT06WlpbMz/NeH0/OTkx8uDhO0l5ZqFEAUme/apPF+cXjx/sPZ5ZWRzye7ySet68ulD3dHCxQXFojaMowiS7UJheK38X/fnV3fWMmqYahSP5ZRrealm8vz403S61oI2lqsBqJIXW1CL25vP/74ybCqhmUNyHVrGoZ1c3pMFsmFoIw0OwWiSPeEGPaLv/kpP8HuEdWyjPzV+0NCQ6RnqJdxD1RL8fb2s7RsWIOZOdqyuHx6RGaIFUGiSNG+xW8/F1+5CF4f+Z9/IDNEegxE8R3pVOP2l1cUfpK17FrwyRBpJki5Idr44/FfP71yn51dgsUv7i/pyRCZCogiwcYf//jbK4PCDwueEJTTr4bILBUA2iPXSzEeeiMVafzwIjwnKYzPhlixDKD4zo1hyAlgniqAkpT8y30h7TUEUtydfIc4FHd2QIoK42BcXxBdT7chVmwCKG5NUgzFX3z+I0lTYhxB447sGnsMkayssSvOTere4qHfrCqdn6QmiRbhgCGStQq74vhBeCj+8XfaJShJ1UuiRThoiDQtyqyY2xkzQsWCP1UplyDOUeuO9Gr6DZEuv2RWHPN4Pxb8lKQWlKqnxEfEAUOs2GLuw0fmaSgekqqUNcYJ4Q1ZHR1uiEuqTHzM7CM3YtSPtwn6JYjLjHFCfi3DDJGWZe3ghk9Q8Umeps/+inVD8asfaoj012uMigdD9kRHkD5DcQir7ymuJPBymCFC2Sib4bA8jb9giqBkWVSTqBGGyG6znRgHB1PxX1nWIKZIE8LRhshusZ01dkP9ghaboJWkqvGjDZEcadJkxRN9M+L4mz9oO7VHlgmOve4Mkak3WDK150ENLJhkE7TydL/vcYZIs4Ms0+K9bsFPjIISwWjGvSFCMZbz1Nw2oKChUnZaEwyRjaL0PdwunCB1CCcaIk1uU2dqYAtoDeIQXtF2khMNcRgj1A3OYrgjKDELSsvEpyYCQ1xTg7Q1dT8cun1jMG4TnRCS3KogNkS6WSrTvX0ufcvayTyGkLrguTJ0RuLzdAXnz49svehjCC+pQ+jWEOm2QlVwjpbZ/ZhC6NoQhzFDsW8c/wwhWP2LPoQEhkjJEM/970AiKBWpCymZIVLMGFGjGvhSBFiDkpRcYgghkSEmUyq7TtXNExhBNc8SQlJDHMZ5lzOcoyUYQcYQkhpiYtq9i1QNXFwWWWYyz1hVphBSGCI9225OStXE3RV7p/YAYwhpDPHpPxYdX1UPTwA6tQcsi+5oz2aIu/FSY8xyvFiivTk4SPKMLYS0hriNa1VGLMfEl6s8zBKUAEJIbeicOFbuhy3HozPqm4NDqDJ0pKyG+MShrzQH3u/LDcOtpQEsi/ZoD2GIHTWt1duPX1wbAGelZ4xrloEmuyF2xGeO55KTOM8bgAF09sL/sAqyGjqSmdJjyTkGTVAHY5VZEMAQ19XXKzUnQZeB/STrvwBP20EYIkXOtP9ehmpiniky3gCDM8SYZn1VUlWwfRCjrmsQT+lDGeJARrCjBOeoqv+APIAOZ+g4RjZWoRxV9X9BCEFQw2dHdklVeqvAPH0Oa4iJROpv2QOpShsy5YjWc0OQQGJBm/3ZrEfDeXDDjmSdYUWq6mrdbMHkqFeGSFE6kuo6haQqrdZ1DeaDPN4ZPkjW6xvSOqnkulSPKFmAp0A9N+w4KqW6E0iCj4usv40oCs143Q/DjiUikVTXV+sRpMQYn+WZqmHHMoIlJ6er2vFTFCSXwBbhlAwd8DbZWZOjLLGeulqKKPilmj4wOfgWDDuSzj6JJXu3Suef1jqun5FI52W6eQ8pOE1D1GkGnI2yY/UVSVrdwHrK42tkiCOTb4aOJLZ0PN8+sFGvO/+hfP25HWSezPhs+KjZIYL/KErPT+wVYEGfDEeh2CuA+wSPhh4I8mXohSBXhjEvBDkyVLJtmE/N82qoZKgfLfs2DJXXUW8EeTHUMw248xKPhlqsAr3RPzNv+q2HW1Ed4rOro2hofvshyocC3dKM+Kyo223Wj8qNJ9H2N001E2owOpI1XffPT5cR6IF+OPBTb9doGtjgdxyJoOzPUtRlpTIFP0cxWrJ9EDS1NtDNFxeU2/K0641utyre1tBeUpVWbKoFx9ainm6CQyhEtemlqmlPfoATnkS5nZ1OVdWzipuHcD0g1Wxlva+qekyu1Hz7KsTUmuKxo2LHojXvzhGTCaTudS8d7Yy/fh3HxJqS0ZTJF0uOHstEU1x8VWegWXoNX3O0TKwxzQ1wArVgxobcH3UzC/INTZBsVnRb00AsdU223X4OZboUXuq6prHVHfwGurbC9NUFnrJQnm9FdJMylLpmakqpvcbR6htGotxotxRTNskssZ2JSivRJud6DyzUmtFgq6TJsukmZXXnhUqrPV8pfBN6jyRq5Uo0uFLSbNuWR6QtjpvzU0eu0SxsclY63RBI1cprlejLNhaV7VgfthZZaQfnG/flQorbwuKKhc1UrVBuNu8rjegTjcr9WrNcqNVS0z8TeUhgIfHEwjeYkQKBQCAQCAQCgUAgEAgEAoFAIBAIBAKBQCAQ+Mf/AWbcXbHSg70fAAAAAElFTkSuQmCC;" vertex="1" parent="1">
          <mxGeometry x="220" y="170" width="50" height="50" as="geometry" />
        </mxCell>
      </root>
    </mxGraphModel>
  </diagram>
</mxfile>
